<?xml version="1.0" encoding="UTF-8" standalone="no"?>

<svg width="288.751" height="563.91" viewBox="0 0 76.399 149.201" xml:space="preserve" xmlns:xlink="http://www.w3.org/1999/xlink" xmlns="http://www.w3.org/2000/svg"><defs><pattern xlink:href="#a" preserveAspectRatio="xMidYMid" id="b" patternTransform="matrix(.75755 0 0 .78736 304.95 3248.352)" x="0" y="0"/><pattern patternUnits="userSpaceOnUse" width="347.745" height="12.799" patternTransform="translate(213.953 1866.025)" preserveAspectRatio="xMidYMid" id="a" style="fill:#fff"><path style="stroke-width:.137911;stroke-linecap:square;paint-order:markers fill stroke;stop-color:#000" d="M340.933 0h.14l3.083 6.316L347.613 0h.131l-3.53 6.466 3.161 6.332h-.11l-3.11-6.163-3.06 6.164h-.12l3.135-6.333zm-6.556 0h.2l3.03 6.207L341.005 0h.194l-3.476 6.465 3.113 6.333h-.171l-3.058-6.054-3.01 6.055h-.18l3.087-6.334zm-6.557 0h.26l2.978 6.098L334.398 0h.254l-3.419 6.463 3.064 6.335h-.233l-3.006-5.944-2.959 5.945h-.239l3.038-6.336zm-6.556 0h.318l2.927 5.989L327.79 0h.317l-3.363 6.462 3.015 6.337h-.296l-2.954-5.836-2.908 5.836h-.298l2.989-6.337zm-6.556 0h.377l2.876 5.88L321.183 0h.377l-3.307 6.46 2.967 6.338h-.358l-2.902-5.725-2.857 5.726h-.357l2.94-6.338zm-6.557 0h.436l2.825 5.77L314.575 0h.44l-3.251 6.46 2.917 6.338h-.42l-2.85-5.616-2.805 5.617h-.417l2.89-6.34zm-6.556 0h.495l2.773 5.66L307.968 0h.5l-3.195 6.458 2.869 6.34h-.482l-2.797-5.507-2.755 5.508h-.476l2.841-6.34zm-6.557 0h.555l2.721 5.552L301.36 0h.563l-3.14 6.457 2.82 6.342h-.544L298.314 7.4l-2.704 5.398h-.536l2.793-6.342zm-6.556 0h.613l2.67 5.442L294.753 0h.624l-3.084 6.455 2.771 6.343h-.605l-2.694-5.288-2.652 5.289h-.596l2.744-6.343zm-6.556 0h.672l2.618 5.333L288.145 0h.686l-3.028 6.454 2.722 6.345h-.667l-2.642-5.18-2.601 5.18h-.655l2.695-6.345zm-6.557 0h.732l2.567 5.224L281.538 0h.747l-2.972 6.453 2.673 6.346h-.729l-2.59-5.07-2.55 5.07h-.714l2.645-6.346zm-6.556 0h.79l2.516 5.115L274.93 0h.809l-2.915 6.452 2.623 6.346h-.79l-2.538-4.96-2.5 4.96h-.774l2.597-6.346zm-6.557 0h.85l2.464 5.005L268.322 0h.87l-2.858 6.45 2.574 6.348h-.853l-2.485-4.85-2.448 4.85h-.834l2.548-6.348zM255.7 0h.909l2.412 4.896L261.715 0h.932l-2.803 6.45 2.525 6.348h-.915l-2.433-4.74-2.397 4.74h-.893l2.499-6.349zm-6.557 0h.968l2.361 4.787L255.107 0h.994l-2.747 6.448 2.477 6.35h-.977l-2.382-4.63-2.346 4.63h-.952l2.45-6.35zm-6.556 0h1.027l2.31 4.678L248.5 0h1.055l-2.691 6.447 2.428 6.351h-1.04l-2.329-4.521-2.294 4.522h-1.012l2.4-6.352zm-6.556 0h1.086l2.258 4.569L241.892 0h1.117l-2.635 6.445 2.379 6.353h-1.101l-2.277-4.412-2.244 4.413h-1.071l2.351-6.354zm-6.557 0h1.146l2.206 4.46L235.285 0h1.178l-2.58 6.444 2.331 6.354h-1.163l-2.225-4.302-2.193 4.303h-1.13l2.302-6.355zm-6.556 0h1.204l2.155 4.35 2.4-4.35h1.24l-2.523 6.443 2.281 6.356h-1.225l-2.173-4.194-2.141 4.193h-1.19l2.253-6.355zm-6.557 0h1.264l2.103 4.24L222.07 0h1.3l-2.466 6.441 2.232 6.357h-1.287l-2.12-4.083-2.091 4.084h-1.25l2.205-6.357zm-6.556 0h1.323l2.052 4.132L215.462 0h1.363l-2.411 6.44 2.183 6.358h-1.348l-2.07-3.974-2.039 3.975h-1.31l2.157-6.359zm-6.556 0h1.381l2 4.022L208.856 0h1.424l-2.355 6.439 2.134 6.36h-1.41l-2.017-3.865-1.988 3.865h-1.37l2.107-6.36zm-6.557 0h1.44l1.95 3.913L202.247 0h1.486l-2.3 6.438 2.086 6.36h-1.472l-1.965-3.755-1.937 3.756h-1.429l2.058-6.361zm-6.556 0h1.5l1.897 3.804L195.64 0h1.547l-2.243 6.436 2.037 6.362h-1.535l-1.913-3.645-1.886 3.646h-1.488l2.009-6.363zm-6.557 0h1.56l1.845 3.695L189.032 0h1.609l-2.187 6.435 1.988 6.364h-1.597l-1.86-3.537-1.836 3.536h-1.547l1.96-6.363zm-6.556 0h1.618l1.794 3.586L182.425 0h1.67l-2.131 6.434 1.939 6.364h-1.659l-1.809-3.426-1.783 3.427h-1.607l1.91-6.365zm-6.556 0h1.677l1.743 3.476L175.817 0h1.732l-2.075 6.433 1.89 6.365h-1.72l-1.757-3.317-1.733 3.318h-1.667l1.863-6.366zm-6.557 0h1.736l1.692 3.367L169.209 0h1.794l-2.02 6.431 1.842 6.367h-1.782l-1.705-3.207-1.682 3.208h-1.726l1.813-6.368zm-6.556 0h1.795l1.64 3.258L162.602 0h1.855l-1.963 6.43 1.792 6.369h-1.844L160.789 9.7l-1.63 3.099h-1.786l1.764-6.369zm-6.557 0h1.855l1.588 3.149L155.994 0h1.917l-1.907 6.429 1.743 6.37h-1.906l-1.6-2.99-1.58 2.99h-1.845l1.715-6.37zm-6.556 0h1.913l1.537 3.04L149.387 0h1.978l-1.851 6.427 1.694 6.372h-1.968l-1.549-2.88-1.528 2.88h-1.904l1.666-6.372zm-6.556 0h1.972l1.486 2.93L142.779 0h2.04l-1.795 6.426 1.645 6.372h-2.03l-1.497-2.77-1.477 2.77h-1.964l1.617-6.372zm-6.557 0h2.032l1.434 2.821L136.172 0h2.1l-1.738 6.425 1.597 6.374h-2.093l-1.444-2.66-1.426 2.66h-2.024l1.568-6.374zm-6.556 0h2.09l1.383 2.712L129.565 0h2.162l-1.683 6.424 1.548 6.375h-2.155l-1.392-2.551-1.375 2.55h-2.083l1.52-6.374zm-6.557 0h2.15l1.331 2.603L122.956 0h2.225l-1.627 6.422 1.499 6.377h-2.216l-1.34-2.442-1.325 2.442h-2.142l1.47-6.377zm-6.556 0h2.209l1.28 2.493L116.348 0h2.286l-1.571 6.421 1.45 6.378h-2.278l-1.289-2.332-1.272 2.332h-2.202l1.42-6.378zm-6.556 0h2.268l1.227 2.384L109.742 0h2.347l-1.515 6.42 1.401 6.378h-2.34l-1.237-2.222-1.221 2.222h-2.262l1.373-6.378zm-6.557 0h2.327l1.177 2.275L103.134 0h2.409l-1.46 6.418 1.353 6.38h-2.402l-1.184-2.112-1.17 2.113h-2.322l1.323-6.38zM91.79 0h2.386L95.3 2.166 96.527 0h2.47l-1.403 6.417 1.303 6.382h-2.464l-1.132-2.004-1.12 2.004h-2.38l1.274-6.382zm-6.557 0h2.446l1.073 2.056L89.919 0h2.532l-1.347 6.416 1.254 6.382h-2.526l-1.08-1.893-1.068 1.894h-2.44l1.225-6.383zm-6.556 0h2.504l1.022 1.947L83.312 0h2.593l-1.291 6.415 1.205 6.383h-2.587l-1.029-1.784-1.017 1.785h-2.5l1.177-6.384zM72.12 0h2.563l.97 1.838L76.704 0h2.655l-1.235 6.413 1.157 6.385h-2.65l-.977-1.674-.966 1.674H72.13l1.128-6.385zm-6.557 0h2.623l.919 1.729.99-1.729h2.717l-1.179 6.412 1.108 6.386H70.03l-.925-1.565-.915 1.565h-2.618l1.078-6.386zm-6.556 0h2.681l.868 1.62.932-1.62h2.778l-1.123 6.41 1.059 6.388h-2.774l-.872-1.455-.864 1.456h-2.678l1.03-6.388zM52.45 0h2.74l.817 1.51.874-1.51h2.839l-1.067 6.41 1.01 6.389h-2.836l-.82-1.347-.813 1.347h-2.737l.98-6.39zm-6.556 0h2.8l.764 1.401L50.274 0h2.9l-1.01 6.408.961 6.39h-2.898l-.768-1.236-.762 1.237H45.9l.932-6.39zm-6.557 0h2.86l.712 1.292L43.667 0h2.962l-.955 6.407.912 6.392h-2.96l-.716-1.128-.71 1.128h-2.857l.883-6.392zm-6.556 0H35.7l.661 1.183L37.06 0h3.024l-.899 6.406.863 6.393h-3.021l-.665-1.018-.659 1.017h-2.916l.834-6.392zm-6.556 0h2.977l.61 1.073L30.452 0h3.085l-.843 6.404.814 6.394h-3.083l-.612-.908-.609.908H26.23l.784-6.394zm-6.557 0h3.036l.559.964.58-.964h3.147l-.787 6.403.765 6.396h-3.145l-.56-.8-.557.8h-3.035l.735-6.396zm-6.556 0h3.095l.507.855.521-.855h3.209l-.73 6.402.716 6.396h-3.208l-.508-.689-.506.69h-3.095l.687-6.397zM6.556 0h3.155l.455.746L10.63 0h3.27l-.675 6.4.668 6.398h-3.27l-.456-.58-.455.58H6.557l.638-6.397zM0 0h3.213l.404.636L4.021 0h3.332l-.619 6.4.619 6.399H4.02l-.404-.471-.404.47H0L.589 6.4z"/></pattern></defs><g transform="translate(-465.043 -1760.075)"><path style="fill:#fff;fill-opacity:1;stroke:none;stroke-width:5.97821;stroke-linecap:square;stroke-linejoin:miter;stroke-miterlimit:20;stroke-dasharray:none;stroke-dashoffset:10.4315;stroke-opacity:1;paint-order:stroke markers fill" d="M496.14 1877.7h14.206v10.569H496.14z"/><path style="fill:#fff;fill-opacity:1;stroke:none;stroke-width:2;stroke-linecap:round;stroke-linejoin:round;stroke-miterlimit:20;stroke-dashoffset:10.4315;stroke-opacity:.125;paint-order:stroke markers fill" d="M472.79 1786.847c19.707-8.42 39.947-9.295 60.906 0z"/><circle style="fill:none;fill-opacity:1;stroke:#fff;stroke-width:4.56471;stroke-linecap:round;stroke-linejoin:round;stroke-miterlimit:20;stroke-dasharray:none;stroke-dashoffset:10.4315;stroke-opacity:1;paint-order:stroke markers fill" cx="503.243" cy="1771.459" r="9.102"/><path style="fill:url(#b);fill-opacity:1;stroke:#fff;stroke-width:3;stroke-linecap:round;stroke-linejoin:miter;stroke-miterlimit:20;stroke-dasharray:none;stroke-dashoffset:10.4315;stroke-opacity:1;paint-order:stroke markers fill" d="m488.364 1791.872-4.99 51.172 38.092-.146-4.078-51.026z"/><path style="fill:none;fill-opacity:1;stroke:#fff;stroke-width:4;stroke-linecap:round;stroke-linejoin:miter;stroke-miterlimit:20;stroke-dasharray:none;stroke-dashoffset:10.4315;stroke-opacity:1;paint-order:stroke markers fill" d="m473.616 1853.42.095 33.802M486.18 1851.085l.096 33.802M520.21 1851.86l.095 33.801M532.652 1853.42l.095 33.802"/><path style="fill:none;fill-opacity:1;stroke:#fff;stroke-width:5;stroke-linecap:square;stroke-linejoin:miter;stroke-miterlimit:20;stroke-dasharray:none;stroke-dashoffset:10.4315;stroke-opacity:1;paint-order:stroke markers fill" d="M471.285 1850.577H535.2"/><path style="fill:#ffcf62;fill-opacity:1;stroke:none;stroke-width:5.23452;stroke-linecap:square;stroke-linejoin:miter;stroke-miterlimit:20;stroke-dasharray:none;stroke-dashoffset:10.4315;stroke-opacity:1;paint-order:stroke markers fill" d="M498.87 1863.89c.034 2.967 5.006 5.331 3.213.49-1.612-4.354-.534-6.983 1.234-9.062.907 3.58 2.607 5.594 4.167 7.746 4.949 6.827-.289 12.421-3.719 12.393-1.971.094-9.68-.956-4.896-11.567z"/><rect style="fill:#fff;fill-opacity:1;stroke:none;stroke-width:3.73956;stroke-linecap:square;stroke-linejoin:miter;stroke-miterlimit:20;stroke-dasharray:none;stroke-dashoffset:10.4315;stroke-opacity:1;paint-order:stroke markers fill" width="68.916" height="19.644" x="468.785" y="1880.231" rx="0" ry="0"/><path style="fill:#fff;fill-opacity:1;stroke:none;stroke-width:3.70508;stroke-linecap:square;stroke-linejoin:miter;stroke-miterlimit:20;stroke-dasharray:none;stroke-dashoffset:10.4315;stroke-opacity:1;paint-order:stroke markers fill" d="M465.044 1901.694h76.399v7.582h-76.399z"/><path style="fill:#fff;fill-opacity:1;stroke:#fff;stroke-width:4;stroke-linecap:square;stroke-linejoin:miter;stroke-miterlimit:20;stroke-dasharray:none;stroke-dashoffset:10.4315;stroke-opacity:1;paint-order:stroke markers fill" d="M503.243 1780.561v70.016M475.401 1850.577l6.585-63.73M530.04 1850.882l-5.54-63.73"/></g></svg>
